<?xml version="1.0" encoding="UTF-8"?>
<svg xmlns="http://www.w3.org/2000/svg" viewBox="0 0 200 500" fill="none" stroke="currentColor">

  <!-- ══ OUTER FEATHER SILHOUETTE ══ -->
  <path stroke-width="1.6" d="
    M 100,480
    C 75,440 45,360 24,285
    C 10,225 8,165 22,115
    C 36,65 70,38 100,30
    C 130,38 164,65 178,115
    C 192,165 190,225 176,285
    C 155,360 125,440 100,480 Z
  "/>

  <!-- ══ EYE SPOT — three concentric rings + filled pupil ══ -->
  <ellipse cx="100" cy="76" rx="22" ry="30" stroke-width="1.5"/>
  <ellipse cx="100" cy="76" rx="13" ry="18" stroke-width="1.2"/>
  <circle  cx="100" cy="76" r="5.5" fill="currentColor" stroke="none"/>

  <!-- ══ 8 PETALS RADIATING FROM EYE ══ -->
  <g fill="currentColor" stroke="none">
    <path d="M 100,46 C 97,56 97,66 100,76 C 103,66 103,56 100,46 Z"/>
    <path d="M 100,106 C 97,96 97,86 100,76 C 103,86 103,96 100,106 Z"/>
    <path d="M 68,76 C 78,73 89,73 100,76 C 89,79 78,79 68,76 Z"/>
    <path d="M 132,76 C 122,73 111,73 100,76 C 111,79 122,79 132,76 Z"/>
    <path d="M 80,54 C 85,65 92,72 100,76 C 97,65 90,57 80,54 Z"/>
    <path d="M 120,54 C 115,65 108,72 100,76 C 103,65 110,57 120,54 Z"/>
    <path d="M 80,98 C 85,87 92,80 100,76 C 97,87 90,95 80,98 Z"/>
    <path d="M 120,98 C 115,87 108,80 100,76 C 103,87 110,95 120,98 Z"/>
  </g>

  <!-- ══ SECONDARY PETAL RING — smaller 8 between primary petals ══ -->
  <g stroke-width="0.7" opacity="0.65">
    <path d="M 100,47 C 98,52 98,58 100,62 C 102,58 102,52 100,47 Z"/>
    <path d="M 100,105 C 98,100 98,94 100,90 C 102,94 102,100 100,105 Z"/>
    <path d="M 68,76 C 73,74 79,74 84,76 C 79,78 73,78 68,76 Z"/>
    <path d="M 132,76 C 127,74 121,74 116,76 C 121,78 127,78 132,76 Z"/>
    <path d="M 84,56 C 86,62 89,67 94,70 C 93,64 90,59 84,56 Z"/>
    <path d="M 116,56 C 114,62 111,67 106,70 C 107,64 110,59 116,56 Z"/>
    <path d="M 84,96 C 86,90 89,85 94,82 C 93,88 90,93 84,96 Z"/>
    <path d="M 116,96 C 114,90 111,85 106,82 C 107,88 110,93 116,96 Z"/>
  </g>

  <!-- ══ CENTRAL RACHIS (quill stem) ══ -->
  <path stroke-width="2.8" stroke-linecap="round" d="M 100,480 Q 100,260 100,30"/>

  <!-- ══ BARBS — LEFT SIDE ══ -->
  <g stroke-width="0.85" stroke-linecap="round">
    <path d="M 100,120 C 84,122 54,123 21,123"/>
    <path d="M 100,140 C 84,142 50,143 19,143"/>
    <path d="M 100,160 C 83,162 46,163 16,163"/>
    <path d="M 100,180 C 82,182 41,183 14,183"/>
    <path d="M 100,200 C 82,202 39,203 13,203"/>
    <path d="M 100,220 C 82,222 39,223 15,223"/>
    <path d="M 100,240 C 82,242 42,243 18,243"/>
    <path d="M 100,260 C 83,262 46,263 21,263"/>
    <path d="M 100,280 C 84,282 50,283 23,283"/>
    <path d="M 100,300 C 85,302 56,303 29,303"/>
    <path d="M 100,320 C 86,322 63,323 36,323"/>
    <path d="M 100,340 C 87,342 69,343 42,343"/>
    <path d="M 100,360 C 87,362 74,363 49,363"/>
    <path d="M 100,380 C 88,382 78,383 55,383"/>
    <path d="M 100,400 C 89,402 82,403 60,403"/>
    <path d="M 100,420 C 92,422 88,423 71,423"/>
    <path d="M 100,440 C 95,441 92,442 81,442"/>
    <path d="M 100,460 C 97,461 95,461 90,461"/>
  </g>

  <!-- ══ BARBS — RIGHT SIDE ══ -->
  <g stroke-width="0.85" stroke-linecap="round">
    <path d="M 100,120 C 116,122 146,123 179,123"/>
    <path d="M 100,140 C 116,142 150,143 181,143"/>
    <path d="M 100,160 C 117,162 154,163 184,163"/>
    <path d="M 100,180 C 118,182 159,183 186,183"/>
    <path d="M 100,200 C 118,202 161,203 187,203"/>
    <path d="M 100,220 C 118,222 161,223 185,223"/>
    <path d="M 100,240 C 118,242 158,243 182,243"/>
    <path d="M 100,260 C 117,262 154,263 179,263"/>
    <path d="M 100,280 C 116,282 150,283 177,283"/>
    <path d="M 100,300 C 115,302 144,303 171,303"/>
    <path d="M 100,320 C 114,322 137,323 164,323"/>
    <path d="M 100,340 C 113,342 131,343 158,343"/>
    <path d="M 100,360 C 113,362 126,363 151,363"/>
    <path d="M 100,380 C 112,382 122,383 145,383"/>
    <path d="M 100,400 C 111,402 118,403 140,403"/>
    <path d="M 100,420 C 108,422 112,423 129,423"/>
    <path d="M 100,440 C 105,441 108,442 119,442"/>
    <path d="M 100,460 C 103,461 105,461 110,461"/>
  </g>

  <!-- ══ ZENTANGLE — dots on upper barbs ══ -->
  <g fill="currentColor" stroke="none">
    <circle cx="72"  cy="123" r="2"/>  <circle cx="48"  cy="123" r="2"/>  <circle cx="30"  cy="123" r="2"/>
    <circle cx="128" cy="123" r="2"/>  <circle cx="152" cy="123" r="2"/>  <circle cx="170" cy="123" r="2"/>
    <circle cx="70"  cy="143" r="2"/>  <circle cx="44"  cy="143" r="2"/>  <circle cx="26"  cy="143" r="2"/>
    <circle cx="130" cy="143" r="2"/>  <circle cx="156" cy="143" r="2"/>  <circle cx="174" cy="143" r="2"/>
    <circle cx="68"  cy="163" r="2"/>  <circle cx="40"  cy="163" r="2"/>  <circle cx="22"  cy="163" r="2"/>
    <circle cx="132" cy="163" r="2"/>  <circle cx="160" cy="163" r="2"/>  <circle cx="178" cy="163" r="2"/>
    <circle cx="66"  cy="183" r="1.8"/><circle cx="38"  cy="183" r="1.8"/><circle cx="20"  cy="183" r="1.8"/>
    <circle cx="134" cy="183" r="1.8"/><circle cx="162" cy="183" r="1.8"/><circle cx="180" cy="183" r="1.8"/>
  </g>

  <!-- ══ ZENTANGLE — downward triangles, left side (between barb pairs) ══ -->
  <g fill="currentColor" stroke="none">
    <!-- between y=220 and y=240 -->
    <path d="M 70,223 L 80,223 L 75,234 Z"/>
    <path d="M 50,222 L 60,222 L 55,233 Z"/>
    <path d="M 30,221 L 40,221 L 35,232 Z"/>
    <!-- between y=260 and y=280 -->
    <path d="M 68,265 L 78,265 L 73,276 Z"/>
    <path d="M 48,264 L 58,264 L 53,275 Z"/>
    <path d="M 30,263 L 40,263 L 35,274 Z"/>
    <!-- between y=300 and y=320 -->
    <path d="M 65,305 L 75,305 L 70,316 Z"/>
    <path d="M 47,304 L 57,304 L 52,315 Z"/>
    <!-- between y=340 and y=360 -->
    <path d="M 62,345 L 72,345 L 67,356 Z"/>
    <path d="M 48,344 L 58,344 L 53,355 Z"/>
    <!-- between y=380 and y=400 -->
    <path d="M 60,385 L 70,385 L 65,396 Z"/>
  </g>

  <!-- ══ ZENTANGLE — upward triangles, left side ══ -->
  <g fill="currentColor" stroke="none">
    <!-- between y=240 and y=260 -->
    <path d="M 60,257 L 70,257 L 65,246 Z"/>
    <path d="M 40,256 L 50,256 L 45,245 Z"/>
    <!-- between y=280 and y=300 -->
    <path d="M 58,297 L 68,297 L 63,286 Z"/>
    <path d="M 38,296 L 48,296 L 43,285 Z"/>
    <!-- between y=320 and y=340 -->
    <path d="M 60,337 L 70,337 L 65,326 Z"/>
    <path d="M 44,336 L 54,336 L 49,325 Z"/>
    <!-- between y=360 and y=380 -->
    <path d="M 60,377 L 70,377 L 65,366 Z"/>
    <path d="M 48,376 L 58,376 L 53,365 Z"/>
    <!-- between y=400 and y=420 -->
    <path d="M 66,417 L 76,417 L 71,406 Z"/>
  </g>

  <!-- ══ ZENTANGLE — right side triangles (mirrored) ══ -->
  <!-- downward -->
  <g fill="currentColor" stroke="none">
    <path d="M 120,223 L 130,223 L 125,234 Z"/>
    <path d="M 140,222 L 150,222 L 145,233 Z"/>
    <path d="M 160,221 L 170,221 L 165,232 Z"/>
    <path d="M 122,265 L 132,265 L 127,276 Z"/>
    <path d="M 142,264 L 152,264 L 147,275 Z"/>
    <path d="M 160,263 L 170,263 L 165,274 Z"/>
    <path d="M 125,305 L 135,305 L 130,316 Z"/>
    <path d="M 143,304 L 153,304 L 148,315 Z"/>
    <path d="M 128,345 L 138,345 L 133,356 Z"/>
    <path d="M 142,344 L 152,344 L 147,355 Z"/>
    <path d="M 130,385 L 140,385 L 135,396 Z"/>
  </g>
  <!-- upward -->
  <g fill="currentColor" stroke="none">
    <path d="M 130,257 L 140,257 L 135,246 Z"/>
    <path d="M 150,256 L 160,256 L 155,245 Z"/>
    <path d="M 132,297 L 142,297 L 137,286 Z"/>
    <path d="M 152,296 L 162,296 L 157,285 Z"/>
    <path d="M 130,337 L 140,337 L 135,326 Z"/>
    <path d="M 146,336 L 156,336 L 151,325 Z"/>
    <path d="M 130,377 L 140,377 L 135,366 Z"/>
    <path d="M 142,376 L 152,376 L 147,365 Z"/>
    <path d="M 124,417 L 134,417 L 129,406 Z"/>
  </g>

  <!-- ══ SMALL DIAMONDS along quill ══ -->
  <g fill="currentColor" stroke="none">
    <path d="M 100,432 L 104,438 L 100,444 L 96,438 Z"/>
    <path d="M 100,448 L 103,453 L 100,458 L 97,453 Z"/>
    <path d="M 100,463 L 103,467 L 100,471 L 97,467 Z"/>
  </g>

  <!-- ══ QUILL BASE — small oval accents ══ -->
  <g fill="currentColor" stroke="none">
    <ellipse cx="100" cy="476" rx="3.5" ry="5"/>
  </g>

  <!-- ══ BASE CURLS — calligraphic flourishes at quill tip ══ -->
  <path stroke-width="1.3" stroke-linecap="round" d="
    M 97,482 C 84,478 74,484 72,494 C 70,504 78,510 86,505 C 90,502 91,496 87,492
  "/>
  <path stroke-width="1.3" stroke-linecap="round" d="
    M 103,482 C 116,478 126,484 128,494 C 130,504 122,510 114,505 C 110,502 109,496 113,492
  "/>

  <!-- ══ FINE CROSS-HATCHING detail lines between wide barbs ══ -->
  <g stroke-width="0.5" opacity="0.5">
    <!-- Diagonal accents in the widest section, left -->
    <path d="M 42,202 C 40,212 38,222 37,232"/>
    <path d="M 28,202 C 26,212 24,222 23,232"/>
    <path d="M 18,184 C 17,194 16,204 15,214"/>
    <!-- right side -->
    <path d="M 158,202 C 160,212 162,222 163,232"/>
    <path d="M 172,202 C 174,212 176,222 177,232"/>
    <path d="M 182,184 C 183,194 184,204 185,214"/>
  </g>

</svg>
